<?xml version="1.0" encoding="utf-8"?>
<!-- Generator: Adobe Illustrator 19.0.0, SVG Export Plug-In . SVG Version: 6.00 Build 0)  -->
<svg version="1.1" id="Layer_1" xmlns="http://www.w3.org/2000/svg" xmlns:xlink="http://www.w3.org/1999/xlink" x="0px" y="0px"
	 viewBox="0 0 800 600" style="enable-background:new 0 0 800 600;" xml:space="preserve">
<style type="text/css">
	.st0{fill:#DCF9F5;}
</style>
<g>
	<path class="st0" d="M341.5,460L341.5,460L341.5,460L341.5,460z"/>
	<path class="st0" d="M465,241L465,241L465,241L465,241z"/>
	<path class="st0" d="M343,455.5L343,455.5L343,455.5L343,455.5L343,455.5L343,455.5L343,455.5c0.1,0,0.1,0,0.1,0
		S343,455.4,343,455.5C343,455.4,343,455.5,343,455.5z"/>
	<path class="st0" d="M474,229.5L474,229.5L474,229.5L474,229.5L474,229.5z"/>
	<path class="st0" d="M524.5,266.4c-0.1,0-0.2,0-0.3-0.1c-12.6,16.3-25.8,33-43.6,43.3c-7,4-14.8,7-22.8,6.9
		c-11.6-0.1-22.4-6.9-29.5-16.1c-1.5-1.9-2.9-4-3.1-6.4c-0.6-6.3,5.6-9.3,9.3-13.1c5.5-5.6,10.2-12.4,15-18.6
		c9.7-12.7,18.7-25.8,26.7-39.7c15.6-27.3,27.1-57.3,30.1-88.7c0.9-9.7,0.6-20.7-6.4-27.6c-7.7-7.7-21-6.8-30.2-1
		c-24.3,15.2-39.1,51.4-48.1,77.2c-6,17.1-10.1,34.8-12.2,52.8c-1.1,9.2-1.7,18.5-1.8,27.9c0,6.3,3.1,19.5-0.2,25
		c-5,8.3-17.8,10.8-26.3,13.8c-0.6,0.2-1.4,0.4-2,0.2c-0.9-0.4-1.1-1.5-1.2-2.4c-2.4-19.1,4.3-36.7,8.7-55
		c3.4-14.1,6.7-28.5,11.4-42.2c2.1-5.9,4-13.4-0.4-17.9s-12.4-2.5-16.5,2.2s-5.3,11.2-6.7,17.3c-4.8,21.2-13.2,41.6-24.8,60
		c-5.5,8.7-11.9,17.1-20.9,22c-3.1,1.7-6.9,3-10.2,1.7c-5-1.8-6.7-8-7.3-13.4c-1.3-11.6-1.1-23.4,0.6-35c0.9-6.5,1.8-13.1,3.3-19.5
		c1.4-5.8,6.4-12.9,5.3-18.8c-1.8-9.9-10-6.8-13.8-1c-3.7,5.7-5.3,13.4-6.8,19.9c-2.8,12.1-5.3,25.3-5.2,37.8
		c0.1,7.7,0.8,15.6,3.7,22.7c2.9,7.2,8.2,13.6,15.3,16.5c10.6,4.3,23.2-0.1,31.6-7.8c7.2-6.6,10-15.1,15.7-22.6
		c4.5-5.9,5-2.9,5.6,2.2c1.5,12.4,0.8,35.7-7.2,45.9c-6.8,8.7-17.4,14.8-25.3,22.6c-8.3,8.2-15.8,17.1-22.5,26.6
		c-13.4,19-23.6,40.4-29.6,62.9c-3.3,12.4-5.4,25.4-3.4,38.1c4.6,29.4,34.6,47.8,60.1,27.3c10.3-8.3,16.7-20.5,21.1-33
		c9-25.3,11-52.2,12-78.8c0.5-13.4,1.3-26.9,1.5-40.3c0.1-7.8,0.3-16.5,6.4-22.2c4.1-3.8,26.6-20.5,31.9-17.6c0.7,0.4,1.2,1,1.6,1.6
		c10.9,13.9,20.8,22.7,39.3,24.3c15.4,0.7,30.6-5.4,42.8-14.7c12.2-9.4,21.7-21.9,29.8-35c1.1-1.8,2.2-3.7,2.3-5.7
		C527.6,269,526.4,266.9,524.5,266.4z M362.8,350.3c-0.8,9.9-3.2,21.1-3.9,26.7c-1.9,16.2-4.6,32.4-7.4,48.5
		c-2.8,16-6.4,32.5-16,45.5c-5.5,7.5-14,13.9-23.2,12.7c-7.4-1-13.5-7-16.4-13.9s-3.1-14.6-2.7-22.1c2.4-44.1,27.9-92.8,67.5-114.6
		C363.1,336.5,363.4,343.1,362.8,350.3z M422.1,276.1c-0.7,0.8-1.5,1.6-2.2,2.3c-5.1-12.5-3.9-26.6-1.7-39.9
		c4.8-28.7,14.6-56.6,28.5-82.2c6.3-11.5,13.9-27.8,24-36.4c8-6.8,20.2-8.2,23,4c1.1,4.9,0.3,10-0.7,14.9
		C482.8,190,457.9,238.1,422.1,276.1z"/>
	<path class="st0" d="M297.5,280c-0.1-0.4-0.2-0.7-0.4-1.1C297.2,279.3,297.2,279.7,297.5,280z"/>
	<path class="st0" d="M325,500.5L325,500.5L325,500.5z"/>
</g>
</svg>
